<svg xmlns="http://www.w3.org/2000/svg" xmlns:xlink="http://www.w3.org/1999/xlink" width="500" zoomAndPan="magnify" viewBox="0 0 375 374.999991" height="500" preserveAspectRatio="xMidYMid meet" version="1.0"><defs><g/></defs><g fill="#fe1e25" fill-opacity="0.302"><g transform="translate(27.39798, 174.813758)"><g><path d="M 2.371094 -5.226562 C 3.03125 -3.863281 4.039062 -2.722656 5.226562 -1.800781 C 6.71875 -0.660156 8.5625 0.0429688 10.585938 0.21875 L 10.585938 0.261719 L 18.488281 0.261719 C 23.496094 0.261719 27.492188 -3.207031 27.492188 -8.609375 L 13.4375 -8.609375 C 12.035156 -8.609375 11.199219 -9.574219 10.980469 -10.890625 L 10.980469 -26.4375 C 10.933594 -26.570312 10.933594 -26.703125 10.933594 -26.878906 L 10.933594 -29.730469 C 10.933594 -29.863281 10.933594 -29.996094 10.980469 -30.128906 C 11.15625 -31.402344 12.296875 -32.367188 13.527344 -32.5 L 19.585938 -32.5 L 19.585938 -31.445312 C 24.285156 -31.445312 27.273438 -34.738281 27.273438 -39.042969 L 27.273438 -41.371094 L 9.484375 -41.371094 C 4.832031 -41.105469 1.667969 -37.726562 1.667969 -32.5 C 1.667969 -32.457031 1.667969 -32.410156 1.667969 -32.410156 L 1.667969 -8.738281 C 1.667969 -7.511719 1.933594 -6.324219 2.371094 -5.226562 Z M 2.371094 -5.226562 "/></g></g></g><g fill="#fe1e25" fill-opacity="0.302"><g transform="translate(57.738822, 174.813758)"><g><path d="M 23.453125 -32.191406 L 23.453125 -24.59375 L 12.078125 -24.59375 L 12.078125 -41.238281 C 6.632812 -41.238281 2.238281 -37.199219 2.238281 -32.191406 L 2.238281 -24.59375 L 2.195312 -24.59375 C 2.195312 -24.242188 2.195312 -23.890625 2.238281 -23.582031 L 2.238281 0.613281 C 7.6875 0.613281 12.078125 -3.425781 12.078125 -8.386719 L 12.078125 -15.984375 L 23.453125 -15.984375 L 23.453125 0.613281 C 28.898438 0.613281 33.289062 -3.425781 33.289062 -8.386719 L 33.289062 -41.238281 C 27.886719 -41.238281 23.453125 -37.199219 23.453125 -32.191406 Z M 23.453125 -32.191406 "/></g></g></g><g fill="#fe1e25" fill-opacity="0.302"><g transform="translate(93.3048, 174.813758)"><g><path d="M 31.664062 -37.59375 C 31.402344 -38.164062 30.960938 -38.734375 30.347656 -39.261719 C 28.679688 -40.886719 26.351562 -41.679688 23.847656 -41.898438 C 22.355469 -42.03125 18.007812 -42.117188 16.335938 -42.117188 C 14.535156 -42.117188 12.910156 -42.03125 11.332031 -41.898438 C 6.324219 -41.414062 2.195312 -37.902344 2.195312 -32.980469 L 2.195312 -8.300781 C 2.195312 -6.632812 2.679688 -5.050781 3.511719 -3.734375 C 3.777344 -3.117188 4.214844 -2.589844 4.832031 -2.0625 C 6.5 -0.4375 8.828125 0.351562 11.332031 0.570312 C 12.824219 0.703125 14.40625 0.789062 16.117188 0.789062 C 17.875 0.789062 22.265625 0.746094 23.847656 0.570312 C 28.855469 0.132812 32.980469 -3.382812 32.980469 -8.300781 L 32.980469 -32.980469 C 32.980469 -34.652344 32.5 -36.230469 31.664062 -37.59375 Z M 23.847656 -11.109375 C 23.628906 -9.75 22.75 -8.785156 21.300781 -8.785156 L 13.878906 -8.785156 C 12.472656 -8.785156 11.550781 -9.75 11.332031 -11.109375 L 11.332031 -30.433594 C 11.550781 -31.796875 12.429688 -32.761719 13.878906 -32.761719 L 21.300781 -32.761719 C 22.75 -32.761719 23.628906 -31.796875 23.847656 -30.390625 Z M 23.847656 -11.109375 "/></g></g></g><g fill="#fe1e25" fill-opacity="0.302"><g transform="translate(128.563413, 174.813758)"><g><path d="M 2.195312 -32.542969 L 2.195312 0.175781 C 7.511719 0.175781 11.769531 -3.777344 11.769531 -8.609375 L 11.769531 -41.328125 C 6.5 -41.328125 2.195312 -37.375 2.195312 -32.542969 Z M 2.195312 -32.542969 "/></g></g></g><g fill="#fe1e25" fill-opacity="0.302"><g transform="translate(142.658081, 174.813758)"><g><path d="M 26.65625 -20.289062 C 24.375 -23.320312 20.730469 -25.296875 16.644531 -25.296875 L 13.703125 -25.296875 C 11.988281 -25.296875 10.585938 -26.703125 10.585938 -28.414062 L 10.585938 -28.722656 C 10.585938 -30.433594 11.988281 -31.839844 13.703125 -31.839844 L 17.917969 -31.839844 C 22.792969 -31.839844 26.746094 -35.925781 26.746094 -41.238281 L 13.703125 -41.238281 C 6.808594 -41.238281 1.1875 -35.617188 1.1875 -28.722656 L 1.1875 -28.414062 C 1.1875 -25.605469 2.109375 -23.011719 3.6875 -20.90625 C 5.972656 -17.875 9.574219 -15.898438 13.703125 -15.898438 L 16.644531 -15.898438 C 18.3125 -15.898438 19.761719 -14.492188 19.761719 -12.824219 L 19.761719 -12.472656 C 19.761719 -10.804688 18.3125 -9.355469 16.644531 -9.355469 L 11.375 -9.355469 C 6.5 -9.355469 2.546875 -5.3125 2.546875 0 L 16.644531 0 C 23.539062 0 29.160156 -5.578125 29.160156 -12.472656 L 29.160156 -12.824219 C 29.160156 -15.589844 28.238281 -18.183594 26.65625 -20.289062 Z M 26.65625 -20.289062 "/></g></g></g><g fill="#fe1e25" fill-opacity="0.302"><g transform="translate(172.559844, 174.813758)"><g><path d="M 11.285156 -16.292969 L 20.773438 -16.292969 L 22.925781 -25.339844 L 11.285156 -25.339844 L 11.285156 -31.621094 L 20.113281 -31.621094 C 25.472656 -31.621094 29.03125 -35.96875 29.03125 -41.371094 L 11.199219 -41.371094 C 5.972656 -41.371094 1.710938 -37.109375 1.710938 -31.839844 L 1.710938 -9.3125 C 1.710938 -4.128906 5.839844 0 11.023438 0 L 17.390625 0 C 22.75 0 26.921875 -4.347656 26.921875 -9.75 L 11.285156 -9.75 Z M 11.285156 -16.292969 "/></g></g></g><g fill="#fe1e25" fill-opacity="0.302"><g transform="translate(203.339778, 174.813758)"><g><path d="M 42.820312 -35.355469 L 36.671875 -13.921875 L 32.761719 -27.582031 L 36.847656 -40.753906 C 31.882812 -42.292969 26.746094 -39.878906 25.339844 -35.355469 L 19.234375 -13.660156 L 13.085938 -35.355469 C 11.683594 -39.878906 6.542969 -42.292969 1.625 -40.753906 L 12.558594 -5.445312 C 13 -3.996094 13.878906 -2.722656 14.976562 -1.757812 C 16.160156 -0.746094 17.609375 0 19.234375 0 C 20.859375 0 22.308594 -0.746094 23.496094 -1.757812 C 24.59375 -2.722656 25.472656 -3.996094 25.910156 -5.445312 L 27.933594 -12.035156 L 29.996094 -5.445312 C 30.433594 -3.996094 31.3125 -2.722656 32.410156 -1.757812 C 33.597656 -0.746094 35.046875 0 36.671875 0 C 38.296875 0 39.746094 -0.746094 40.929688 -1.757812 C 42.03125 -2.722656 42.90625 -3.996094 43.347656 -5.445312 L 54.28125 -40.753906 C 49.363281 -42.292969 44.226562 -39.878906 42.820312 -35.355469 Z M 42.820312 -35.355469 "/></g></g></g><g fill="#fe1e25" fill-opacity="0.302"><g transform="translate(258.532912, 174.813758)"><g><path d="M 11.285156 -16.292969 L 20.773438 -16.292969 L 22.925781 -25.339844 L 11.285156 -25.339844 L 11.285156 -31.621094 L 20.113281 -31.621094 C 25.472656 -31.621094 29.03125 -35.96875 29.03125 -41.371094 L 11.199219 -41.371094 C 5.972656 -41.371094 1.710938 -37.109375 1.710938 -31.839844 L 1.710938 -9.3125 C 1.710938 -4.128906 5.839844 0 11.023438 0 L 17.390625 0 C 22.75 0 26.921875 -4.347656 26.921875 -9.75 L 11.285156 -9.75 Z M 11.285156 -16.292969 "/></g></g></g><g fill="#fe1e25" fill-opacity="0.302"><g transform="translate(289.312834, 174.813758)"><g><path d="M 24.066406 -35.878906 C 23.496094 -38.121094 22.308594 -39.65625 20.378906 -40.753906 C 19.324219 -41.371094 18.183594 -41.679688 16.953125 -41.679688 C 15.722656 -41.679688 14.582031 -41.371094 13.570312 -40.753906 C 11.636719 -39.65625 10.410156 -38.121094 9.882812 -35.878906 L 0.308594 -0.261719 C 5.269531 0.921875 10.144531 -1.757812 11.285156 -6.28125 L 11.769531 -8.257812 L 11.945312 -9.265625 L 21.957031 -9.265625 L 22.179688 -8.257812 L 22.660156 -6.28125 C 23.757812 -1.757812 28.679688 0.921875 33.597656 -0.261719 Z M 20.421875 -16.644531 L 13.484375 -16.644531 L 16.953125 -29.996094 Z M 20.421875 -16.644531 "/></g></g></g><g fill="#fe1e25" fill-opacity="0.302"><g transform="translate(323.429836, 174.813758)"><g><path d="M 25.078125 -13.789062 C 26.175781 -14.359375 27.140625 -15.019531 27.976562 -15.808594 C 29.382812 -17.085938 30.433594 -18.664062 31.226562 -20.554688 C 32.015625 -22.441406 32.367188 -24.636719 32.367188 -27.097656 L 32.367188 -27.230469 C 32.367188 -29.558594 32.015625 -31.621094 31.3125 -33.464844 C 30.609375 -35.308594 29.601562 -36.847656 28.28125 -38.121094 C 27.007812 -39.394531 25.382812 -40.316406 23.539062 -40.976562 C 21.695312 -41.632812 19.585938 -41.984375 17.347656 -41.984375 L 11.285156 -41.984375 C 6.761719 -41.984375 1.800781 -37.726562 1.800781 -32.457031 L 1.800781 0 C 7.335938 0 11.859375 -5.183594 11.859375 -11.636719 L 11.859375 -11.988281 L 15.984375 -11.988281 L 21.433594 -3.863281 C 24.199219 0.261719 29.160156 1.230469 33.289062 -1.539062 Z M 11.859375 -32.28125 L 16.558594 -32.28125 C 18.402344 -32.28125 19.808594 -31.796875 20.816406 -30.832031 C 21.828125 -29.90625 22.355469 -28.503906 22.355469 -26.703125 L 22.355469 -26.570312 C 22.355469 -24.902344 21.828125 -23.582031 20.816406 -22.574219 C 19.808594 -21.609375 18.402344 -21.082031 16.601562 -21.082031 L 11.859375 -21.082031 Z M 11.859375 -32.28125 "/></g></g></g><g fill="#fe1e25" fill-opacity="0.502"><g transform="translate(24.746009, 172.425917)"><g><path d="M 2.371094 -5.226562 C 3.03125 -3.863281 4.039062 -2.722656 5.226562 -1.800781 C 6.71875 -0.660156 8.5625 0.0429688 10.585938 0.21875 L 10.585938 0.261719 L 18.488281 0.261719 C 23.496094 0.261719 27.492188 -3.207031 27.492188 -8.609375 L 13.4375 -8.609375 C 12.035156 -8.609375 11.199219 -9.574219 10.980469 -10.890625 L 10.980469 -26.4375 C 10.933594 -26.570312 10.933594 -26.703125 10.933594 -26.878906 L 10.933594 -29.730469 C 10.933594 -29.863281 10.933594 -29.996094 10.980469 -30.128906 C 11.15625 -31.402344 12.296875 -32.367188 13.527344 -32.5 L 19.585938 -32.5 L 19.585938 -31.445312 C 24.285156 -31.445312 27.273438 -34.738281 27.273438 -39.042969 L 27.273438 -41.371094 L 9.484375 -41.371094 C 4.832031 -41.105469 1.667969 -37.726562 1.667969 -32.5 C 1.667969 -32.457031 1.667969 -32.410156 1.667969 -32.410156 L 1.667969 -8.738281 C 1.667969 -7.511719 1.933594 -6.324219 2.371094 -5.226562 Z M 2.371094 -5.226562 "/></g></g></g><g fill="#fe1e25" fill-opacity="0.502"><g transform="translate(55.086851, 172.425917)"><g><path d="M 23.453125 -32.191406 L 23.453125 -24.59375 L 12.078125 -24.59375 L 12.078125 -41.238281 C 6.632812 -41.238281 2.238281 -37.199219 2.238281 -32.191406 L 2.238281 -24.59375 L 2.195312 -24.59375 C 2.195312 -24.242188 2.195312 -23.890625 2.238281 -23.582031 L 2.238281 0.613281 C 7.6875 0.613281 12.078125 -3.425781 12.078125 -8.386719 L 12.078125 -15.984375 L 23.453125 -15.984375 L 23.453125 0.613281 C 28.898438 0.613281 33.289062 -3.425781 33.289062 -8.386719 L 33.289062 -41.238281 C 27.886719 -41.238281 23.453125 -37.199219 23.453125 -32.191406 Z M 23.453125 -32.191406 "/></g></g></g><g fill="#fe1e25" fill-opacity="0.502"><g transform="translate(90.652829, 172.425917)"><g><path d="M 31.664062 -37.59375 C 31.402344 -38.164062 30.960938 -38.734375 30.347656 -39.261719 C 28.679688 -40.886719 26.351562 -41.679688 23.847656 -41.898438 C 22.355469 -42.03125 18.007812 -42.117188 16.335938 -42.117188 C 14.535156 -42.117188 12.910156 -42.03125 11.332031 -41.898438 C 6.324219 -41.414062 2.195312 -37.902344 2.195312 -32.980469 L 2.195312 -8.300781 C 2.195312 -6.632812 2.679688 -5.050781 3.511719 -3.734375 C 3.777344 -3.117188 4.214844 -2.589844 4.832031 -2.0625 C 6.5 -0.4375 8.828125 0.351562 11.332031 0.570312 C 12.824219 0.703125 14.40625 0.789062 16.117188 0.789062 C 17.875 0.789062 22.265625 0.746094 23.847656 0.570312 C 28.855469 0.132812 32.980469 -3.382812 32.980469 -8.300781 L 32.980469 -32.980469 C 32.980469 -34.652344 32.5 -36.230469 31.664062 -37.59375 Z M 23.847656 -11.109375 C 23.628906 -9.75 22.75 -8.785156 21.300781 -8.785156 L 13.878906 -8.785156 C 12.472656 -8.785156 11.550781 -9.75 11.332031 -11.109375 L 11.332031 -30.433594 C 11.550781 -31.796875 12.429688 -32.761719 13.878906 -32.761719 L 21.300781 -32.761719 C 22.75 -32.761719 23.628906 -31.796875 23.847656 -30.390625 Z M 23.847656 -11.109375 "/></g></g></g><g fill="#fe1e25" fill-opacity="0.502"><g transform="translate(125.911442, 172.425917)"><g><path d="M 2.195312 -32.542969 L 2.195312 0.175781 C 7.511719 0.175781 11.769531 -3.777344 11.769531 -8.609375 L 11.769531 -41.328125 C 6.5 -41.328125 2.195312 -37.375 2.195312 -32.542969 Z M 2.195312 -32.542969 "/></g></g></g><g fill="#fe1e25" fill-opacity="0.502"><g transform="translate(140.006109, 172.425917)"><g><path d="M 26.65625 -20.289062 C 24.375 -23.320312 20.730469 -25.296875 16.644531 -25.296875 L 13.703125 -25.296875 C 11.988281 -25.296875 10.585938 -26.703125 10.585938 -28.414062 L 10.585938 -28.722656 C 10.585938 -30.433594 11.988281 -31.839844 13.703125 -31.839844 L 17.917969 -31.839844 C 22.792969 -31.839844 26.746094 -35.925781 26.746094 -41.238281 L 13.703125 -41.238281 C 6.808594 -41.238281 1.1875 -35.617188 1.1875 -28.722656 L 1.1875 -28.414062 C 1.1875 -25.605469 2.109375 -23.011719 3.6875 -20.90625 C 5.972656 -17.875 9.574219 -15.898438 13.703125 -15.898438 L 16.644531 -15.898438 C 18.3125 -15.898438 19.761719 -14.492188 19.761719 -12.824219 L 19.761719 -12.472656 C 19.761719 -10.804688 18.3125 -9.355469 16.644531 -9.355469 L 11.375 -9.355469 C 6.5 -9.355469 2.546875 -5.3125 2.546875 0 L 16.644531 0 C 23.539062 0 29.160156 -5.578125 29.160156 -12.472656 L 29.160156 -12.824219 C 29.160156 -15.589844 28.238281 -18.183594 26.65625 -20.289062 Z M 26.65625 -20.289062 "/></g></g></g><g fill="#fe1e25" fill-opacity="0.502"><g transform="translate(169.907873, 172.425917)"><g><path d="M 11.285156 -16.292969 L 20.773438 -16.292969 L 22.925781 -25.339844 L 11.285156 -25.339844 L 11.285156 -31.621094 L 20.113281 -31.621094 C 25.472656 -31.621094 29.03125 -35.96875 29.03125 -41.371094 L 11.199219 -41.371094 C 5.972656 -41.371094 1.710938 -37.109375 1.710938 -31.839844 L 1.710938 -9.3125 C 1.710938 -4.128906 5.839844 0 11.023438 0 L 17.390625 0 C 22.75 0 26.921875 -4.347656 26.921875 -9.75 L 11.285156 -9.75 Z M 11.285156 -16.292969 "/></g></g></g><g fill="#fe1e25" fill-opacity="0.502"><g transform="translate(200.687807, 172.425917)"><g><path d="M 42.820312 -35.355469 L 36.671875 -13.921875 L 32.761719 -27.582031 L 36.847656 -40.753906 C 31.882812 -42.292969 26.746094 -39.878906 25.339844 -35.355469 L 19.234375 -13.660156 L 13.085938 -35.355469 C 11.683594 -39.878906 6.542969 -42.292969 1.625 -40.753906 L 12.558594 -5.445312 C 13 -3.996094 13.878906 -2.722656 14.976562 -1.757812 C 16.160156 -0.746094 17.609375 0 19.234375 0 C 20.859375 0 22.308594 -0.746094 23.496094 -1.757812 C 24.59375 -2.722656 25.472656 -3.996094 25.910156 -5.445312 L 27.933594 -12.035156 L 29.996094 -5.445312 C 30.433594 -3.996094 31.3125 -2.722656 32.410156 -1.757812 C 33.597656 -0.746094 35.046875 0 36.671875 0 C 38.296875 0 39.746094 -0.746094 40.929688 -1.757812 C 42.03125 -2.722656 42.90625 -3.996094 43.347656 -5.445312 L 54.28125 -40.753906 C 49.363281 -42.292969 44.226562 -39.878906 42.820312 -35.355469 Z M 42.820312 -35.355469 "/></g></g></g><g fill="#fe1e25" fill-opacity="0.502"><g transform="translate(255.880941, 172.425917)"><g><path d="M 11.285156 -16.292969 L 20.773438 -16.292969 L 22.925781 -25.339844 L 11.285156 -25.339844 L 11.285156 -31.621094 L 20.113281 -31.621094 C 25.472656 -31.621094 29.03125 -35.96875 29.03125 -41.371094 L 11.199219 -41.371094 C 5.972656 -41.371094 1.710938 -37.109375 1.710938 -31.839844 L 1.710938 -9.3125 C 1.710938 -4.128906 5.839844 0 11.023438 0 L 17.390625 0 C 22.75 0 26.921875 -4.347656 26.921875 -9.75 L 11.285156 -9.75 Z M 11.285156 -16.292969 "/></g></g></g><g fill="#fe1e25" fill-opacity="0.502"><g transform="translate(286.660863, 172.425917)"><g><path d="M 24.066406 -35.878906 C 23.496094 -38.121094 22.308594 -39.65625 20.378906 -40.753906 C 19.324219 -41.371094 18.183594 -41.679688 16.953125 -41.679688 C 15.722656 -41.679688 14.582031 -41.371094 13.570312 -40.753906 C 11.636719 -39.65625 10.410156 -38.121094 9.882812 -35.878906 L 0.308594 -0.261719 C 5.269531 0.921875 10.144531 -1.757812 11.285156 -6.28125 L 11.769531 -8.257812 L 11.945312 -9.265625 L 21.957031 -9.265625 L 22.179688 -8.257812 L 22.660156 -6.28125 C 23.757812 -1.757812 28.679688 0.921875 33.597656 -0.261719 Z M 20.421875 -16.644531 L 13.484375 -16.644531 L 16.953125 -29.996094 Z M 20.421875 -16.644531 "/></g></g></g><g fill="#fe1e25" fill-opacity="0.502"><g transform="translate(320.777865, 172.425917)"><g><path d="M 25.078125 -13.789062 C 26.175781 -14.359375 27.140625 -15.019531 27.976562 -15.808594 C 29.382812 -17.085938 30.433594 -18.664062 31.226562 -20.554688 C 32.015625 -22.441406 32.367188 -24.636719 32.367188 -27.097656 L 32.367188 -27.230469 C 32.367188 -29.558594 32.015625 -31.621094 31.3125 -33.464844 C 30.609375 -35.308594 29.601562 -36.847656 28.28125 -38.121094 C 27.007812 -39.394531 25.382812 -40.316406 23.539062 -40.976562 C 21.695312 -41.632812 19.585938 -41.984375 17.347656 -41.984375 L 11.285156 -41.984375 C 6.761719 -41.984375 1.800781 -37.726562 1.800781 -32.457031 L 1.800781 0 C 7.335938 0 11.859375 -5.183594 11.859375 -11.636719 L 11.859375 -11.988281 L 15.984375 -11.988281 L 21.433594 -3.863281 C 24.199219 0.261719 29.160156 1.230469 33.289062 -1.539062 Z M 11.859375 -32.28125 L 16.558594 -32.28125 C 18.402344 -32.28125 19.808594 -31.796875 20.816406 -30.832031 C 21.828125 -29.90625 22.355469 -28.503906 22.355469 -26.703125 L 22.355469 -26.570312 C 22.355469 -24.902344 21.828125 -23.582031 20.816406 -22.574219 C 19.808594 -21.609375 18.402344 -21.082031 16.601562 -21.082031 L 11.859375 -21.082031 Z M 11.859375 -32.28125 "/></g></g></g><g fill="#333333" fill-opacity="1"><g transform="translate(22.094036, 170.038068)"><g><path d="M 2.371094 -5.226562 C 3.03125 -3.863281 4.039062 -2.722656 5.226562 -1.800781 C 6.71875 -0.660156 8.5625 0.0429688 10.585938 0.21875 L 10.585938 0.261719 L 18.488281 0.261719 C 23.496094 0.261719 27.492188 -3.207031 27.492188 -8.609375 L 13.4375 -8.609375 C 12.035156 -8.609375 11.199219 -9.574219 10.980469 -10.890625 L 10.980469 -26.4375 C 10.933594 -26.570312 10.933594 -26.703125 10.933594 -26.878906 L 10.933594 -29.730469 C 10.933594 -29.863281 10.933594 -29.996094 10.980469 -30.128906 C 11.15625 -31.402344 12.296875 -32.367188 13.527344 -32.5 L 19.585938 -32.5 L 19.585938 -31.445312 C 24.285156 -31.445312 27.273438 -34.738281 27.273438 -39.042969 L 27.273438 -41.371094 L 9.484375 -41.371094 C 4.832031 -41.105469 1.667969 -37.726562 1.667969 -32.5 C 1.667969 -32.457031 1.667969 -32.410156 1.667969 -32.410156 L 1.667969 -8.738281 C 1.667969 -7.511719 1.933594 -6.324219 2.371094 -5.226562 Z M 2.371094 -5.226562 "/></g></g></g><g fill="#333333" fill-opacity="1"><g transform="translate(52.434878, 170.038068)"><g><path d="M 23.453125 -32.191406 L 23.453125 -24.59375 L 12.078125 -24.59375 L 12.078125 -41.238281 C 6.632812 -41.238281 2.238281 -37.199219 2.238281 -32.191406 L 2.238281 -24.59375 L 2.195312 -24.59375 C 2.195312 -24.242188 2.195312 -23.890625 2.238281 -23.582031 L 2.238281 0.613281 C 7.6875 0.613281 12.078125 -3.425781 12.078125 -8.386719 L 12.078125 -15.984375 L 23.453125 -15.984375 L 23.453125 0.613281 C 28.898438 0.613281 33.289062 -3.425781 33.289062 -8.386719 L 33.289062 -41.238281 C 27.886719 -41.238281 23.453125 -37.199219 23.453125 -32.191406 Z M 23.453125 -32.191406 "/></g></g></g><g fill="#333333" fill-opacity="1"><g transform="translate(88.000856, 170.038068)"><g><path d="M 31.664062 -37.59375 C 31.402344 -38.164062 30.960938 -38.734375 30.347656 -39.261719 C 28.679688 -40.886719 26.351562 -41.679688 23.847656 -41.898438 C 22.355469 -42.03125 18.007812 -42.117188 16.335938 -42.117188 C 14.535156 -42.117188 12.910156 -42.03125 11.332031 -41.898438 C 6.324219 -41.414062 2.195312 -37.902344 2.195312 -32.980469 L 2.195312 -8.300781 C 2.195312 -6.632812 2.679688 -5.050781 3.511719 -3.734375 C 3.777344 -3.117188 4.214844 -2.589844 4.832031 -2.0625 C 6.5 -0.4375 8.828125 0.351562 11.332031 0.570312 C 12.824219 0.703125 14.40625 0.789062 16.117188 0.789062 C 17.875 0.789062 22.265625 0.746094 23.847656 0.570312 C 28.855469 0.132812 32.980469 -3.382812 32.980469 -8.300781 L 32.980469 -32.980469 C 32.980469 -34.652344 32.5 -36.230469 31.664062 -37.59375 Z M 23.847656 -11.109375 C 23.628906 -9.75 22.75 -8.785156 21.300781 -8.785156 L 13.878906 -8.785156 C 12.472656 -8.785156 11.550781 -9.75 11.332031 -11.109375 L 11.332031 -30.433594 C 11.550781 -31.796875 12.429688 -32.761719 13.878906 -32.761719 L 21.300781 -32.761719 C 22.75 -32.761719 23.628906 -31.796875 23.847656 -30.390625 Z M 23.847656 -11.109375 "/></g></g></g><g fill="#333333" fill-opacity="1"><g transform="translate(123.259469, 170.038068)"><g><path d="M 2.195312 -32.542969 L 2.195312 0.175781 C 7.511719 0.175781 11.769531 -3.777344 11.769531 -8.609375 L 11.769531 -41.328125 C 6.5 -41.328125 2.195312 -37.375 2.195312 -32.542969 Z M 2.195312 -32.542969 "/></g></g></g><g fill="#333333" fill-opacity="1"><g transform="translate(137.354136, 170.038068)"><g><path d="M 26.65625 -20.289062 C 24.375 -23.320312 20.730469 -25.296875 16.644531 -25.296875 L 13.703125 -25.296875 C 11.988281 -25.296875 10.585938 -26.703125 10.585938 -28.414062 L 10.585938 -28.722656 C 10.585938 -30.433594 11.988281 -31.839844 13.703125 -31.839844 L 17.917969 -31.839844 C 22.792969 -31.839844 26.746094 -35.925781 26.746094 -41.238281 L 13.703125 -41.238281 C 6.808594 -41.238281 1.1875 -35.617188 1.1875 -28.722656 L 1.1875 -28.414062 C 1.1875 -25.605469 2.109375 -23.011719 3.6875 -20.90625 C 5.972656 -17.875 9.574219 -15.898438 13.703125 -15.898438 L 16.644531 -15.898438 C 18.3125 -15.898438 19.761719 -14.492188 19.761719 -12.824219 L 19.761719 -12.472656 C 19.761719 -10.804688 18.3125 -9.355469 16.644531 -9.355469 L 11.375 -9.355469 C 6.5 -9.355469 2.546875 -5.3125 2.546875 0 L 16.644531 0 C 23.539062 0 29.160156 -5.578125 29.160156 -12.472656 L 29.160156 -12.824219 C 29.160156 -15.589844 28.238281 -18.183594 26.65625 -20.289062 Z M 26.65625 -20.289062 "/></g></g></g><g fill="#333333" fill-opacity="1"><g transform="translate(167.2559, 170.038068)"><g><path d="M 11.285156 -16.292969 L 20.773438 -16.292969 L 22.925781 -25.339844 L 11.285156 -25.339844 L 11.285156 -31.621094 L 20.113281 -31.621094 C 25.472656 -31.621094 29.03125 -35.96875 29.03125 -41.371094 L 11.199219 -41.371094 C 5.972656 -41.371094 1.710938 -37.109375 1.710938 -31.839844 L 1.710938 -9.3125 C 1.710938 -4.128906 5.839844 0 11.023438 0 L 17.390625 0 C 22.75 0 26.921875 -4.347656 26.921875 -9.75 L 11.285156 -9.75 Z M 11.285156 -16.292969 "/></g></g></g><g fill="#333333" fill-opacity="1"><g transform="translate(198.035834, 170.038068)"><g><path d="M 42.820312 -35.355469 L 36.671875 -13.921875 L 32.761719 -27.582031 L 36.847656 -40.753906 C 31.882812 -42.292969 26.746094 -39.878906 25.339844 -35.355469 L 19.234375 -13.660156 L 13.085938 -35.355469 C 11.683594 -39.878906 6.542969 -42.292969 1.625 -40.753906 L 12.558594 -5.445312 C 13 -3.996094 13.878906 -2.722656 14.976562 -1.757812 C 16.160156 -0.746094 17.609375 0 19.234375 0 C 20.859375 0 22.308594 -0.746094 23.496094 -1.757812 C 24.59375 -2.722656 25.472656 -3.996094 25.910156 -5.445312 L 27.933594 -12.035156 L 29.996094 -5.445312 C 30.433594 -3.996094 31.3125 -2.722656 32.410156 -1.757812 C 33.597656 -0.746094 35.046875 0 36.671875 0 C 38.296875 0 39.746094 -0.746094 40.929688 -1.757812 C 42.03125 -2.722656 42.90625 -3.996094 43.347656 -5.445312 L 54.28125 -40.753906 C 49.363281 -42.292969 44.226562 -39.878906 42.820312 -35.355469 Z M 42.820312 -35.355469 "/></g></g></g><g fill="#333333" fill-opacity="1"><g transform="translate(253.228968, 170.038068)"><g><path d="M 11.285156 -16.292969 L 20.773438 -16.292969 L 22.925781 -25.339844 L 11.285156 -25.339844 L 11.285156 -31.621094 L 20.113281 -31.621094 C 25.472656 -31.621094 29.03125 -35.96875 29.03125 -41.371094 L 11.199219 -41.371094 C 5.972656 -41.371094 1.710938 -37.109375 1.710938 -31.839844 L 1.710938 -9.3125 C 1.710938 -4.128906 5.839844 0 11.023438 0 L 17.390625 0 C 22.75 0 26.921875 -4.347656 26.921875 -9.75 L 11.285156 -9.75 Z M 11.285156 -16.292969 "/></g></g></g><g fill="#333333" fill-opacity="1"><g transform="translate(284.00889, 170.038068)"><g><path d="M 24.066406 -35.878906 C 23.496094 -38.121094 22.308594 -39.65625 20.378906 -40.753906 C 19.324219 -41.371094 18.183594 -41.679688 16.953125 -41.679688 C 15.722656 -41.679688 14.582031 -41.371094 13.570312 -40.753906 C 11.636719 -39.65625 10.410156 -38.121094 9.882812 -35.878906 L 0.308594 -0.261719 C 5.269531 0.921875 10.144531 -1.757812 11.285156 -6.28125 L 11.769531 -8.257812 L 11.945312 -9.265625 L 21.957031 -9.265625 L 22.179688 -8.257812 L 22.660156 -6.28125 C 23.757812 -1.757812 28.679688 0.921875 33.597656 -0.261719 Z M 20.421875 -16.644531 L 13.484375 -16.644531 L 16.953125 -29.996094 Z M 20.421875 -16.644531 "/></g></g></g><g fill="#333333" fill-opacity="1"><g transform="translate(318.125892, 170.038068)"><g><path d="M 25.078125 -13.789062 C 26.175781 -14.359375 27.140625 -15.019531 27.976562 -15.808594 C 29.382812 -17.085938 30.433594 -18.664062 31.226562 -20.554688 C 32.015625 -22.441406 32.367188 -24.636719 32.367188 -27.097656 L 32.367188 -27.230469 C 32.367188 -29.558594 32.015625 -31.621094 31.3125 -33.464844 C 30.609375 -35.308594 29.601562 -36.847656 28.28125 -38.121094 C 27.007812 -39.394531 25.382812 -40.316406 23.539062 -40.976562 C 21.695312 -41.632812 19.585938 -41.984375 17.347656 -41.984375 L 11.285156 -41.984375 C 6.761719 -41.984375 1.800781 -37.726562 1.800781 -32.457031 L 1.800781 0 C 7.335938 0 11.859375 -5.183594 11.859375 -11.636719 L 11.859375 -11.988281 L 15.984375 -11.988281 L 21.433594 -3.863281 C 24.199219 0.261719 29.160156 1.230469 33.289062 -1.539062 Z M 11.859375 -32.28125 L 16.558594 -32.28125 C 18.402344 -32.28125 19.808594 -31.796875 20.816406 -30.832031 C 21.828125 -29.90625 22.355469 -28.503906 22.355469 -26.703125 L 22.355469 -26.570312 C 22.355469 -24.902344 21.828125 -23.582031 20.816406 -22.574219 C 19.808594 -21.609375 18.402344 -21.082031 16.601562 -21.082031 L 11.859375 -21.082031 Z M 11.859375 -32.28125 "/></g></g></g></svg>